<?xml version="1.0" standalone="no"?>
<!DOCTYPE svg PUBLIC "-//W3C//DTD SVG 20010904//EN"
 "http://www.w3.org/TR/2001/REC-SVG-20010904/DTD/svg10.dtd">
<svg version="1.0" xmlns="http://www.w3.org/2000/svg"
 width="1152.000000pt" height="1152.000000pt" viewBox="0 0 1152.000000 1152.000000"
 preserveAspectRatio="xMidYMid meet">
<metadata>
Created by potrace 1.11, written by Peter Selinger 2001-2013
</metadata>
<g transform="translate(0.000000,1152.000000) scale(0.100000,-0.100000)"
fill="#000000" stroke="none">
<path d="M5565 11134 c-469 -28 -747 -67 -1115 -159 -389 -97 -760 -238 -1135
-429 -522 -266 -943 -572 -1355 -986 -428 -428 -728 -844 -1000 -1385 -390
-774 -573 -1548 -573 -2415 0 -867 183 -1642 573 -2415 273 -544 571 -955
1000 -1385 412 -414 833 -720 1355 -986 383 -196 753 -334 1155 -433 449 -110
818 -154 1290 -154 472 0 841 44 1290 154 402 99 772 237 1155 433 522 266
943 572 1355 986 429 430 727 841 1000 1385 390 773 573 1548 573 2415 0 151
-5 338 -12 415 -62 723 -234 1345 -547 1975 -267 537 -582 976 -1004 1400
-420 422 -838 727 -1365 996 -749 383 -1507 571 -2357 587 -123 3 -250 3 -283
1z m780 -449 c194 -19 352 -40 390 -53 45 -16 233 -55 285 -60 25 -2 51 -9 59
-16 15 -12 101 -39 191 -61 30 -7 69 -19 85 -28 64 -32 124 -56 159 -62 19 -4
40 -13 47 -21 6 -8 15 -14 20 -14 5 0 48 -18 96 -41 47 -22 96 -45 107 -50 12
-6 39 -21 61 -34 22 -14 55 -32 73 -40 18 -9 56 -31 83 -50 27 -19 55 -35 63
-35 8 0 18 -5 21 -10 6 -9 51 -42 104 -75 16 -10 114 -85 141 -107 8 -7 37
-30 64 -52 73 -58 248 -217 300 -273 233 -251 382 -444 486 -628 19 -35 40
-69 46 -76 6 -8 24 -41 38 -74 15 -33 31 -67 37 -75 5 -8 14 -26 21 -40 39
-85 48 -107 48 -115 0 -4 8 -26 19 -49 24 -53 41 -101 53 -151 6 -22 17 -60
25 -85 8 -25 20 -70 27 -100 8 -30 18 -68 24 -85 6 -16 18 -95 27 -175 9 -80
21 -176 26 -215 7 -43 9 -179 6 -355 -6 -329 -18 -407 -88 -550 -23 -47 -49
-103 -59 -125 -9 -22 -25 -56 -34 -75 -29 -62 -66 -232 -66 -306 0 -79 29
-212 62 -289 18 -41 57 -113 128 -235 4 -8 20 -40 35 -70 15 -30 33 -62 40
-70 7 -8 17 -30 23 -48 6 -17 26 -56 45 -85 19 -28 38 -62 42 -75 4 -13 22
-50 41 -83 19 -34 34 -63 34 -65 0 -2 25 -57 56 -121 55 -116 70 -152 100
-243 9 -25 22 -57 30 -72 8 -14 14 -39 14 -56 0 -48 -44 -134 -94 -183 -57
-57 -172 -99 -270 -99 -55 0 -70 -4 -112 -32 -45 -31 -49 -37 -67 -108 -16
-63 -17 -85 -8 -136 6 -34 11 -141 11 -238 0 -171 -1 -178 -24 -212 -26 -38
-70 -72 -127 -97 -62 -28 -83 -51 -82 -92 1 -20 8 -44 16 -53 8 -9 22 -39 32
-66 16 -41 17 -55 7 -92 -7 -24 -12 -55 -12 -68 0 -13 -8 -34 -18 -47 -10 -13
-31 -46 -47 -74 -15 -27 -40 -64 -56 -82 -60 -69 -117 -233 -106 -304 2 -19
10 -72 16 -118 7 -46 17 -93 23 -104 19 -36 15 -214 -6 -287 -29 -103 -35
-115 -79 -163 -30 -33 -69 -58 -137 -90 -81 -38 -115 -47 -235 -66 -184 -28
-419 -28 -640 -1 -88 11 -188 20 -223 20 -37 0 -86 8 -119 20 -77 27 -336 29
-385 4 -17 -9 -61 -20 -97 -25 -46 -5 -92 -21 -151 -50 -98 -49 -115 -61 -189
-132 -69 -66 -81 -86 -216 -352 -62 -122 -117 -230 -123 -241 -5 -10 -21 -44
-36 -74 -14 -30 -32 -66 -40 -80 -15 -26 -95 -192 -143 -297 l-28 -62 -422 0
c-411 -1 -423 0 -423 18 0 11 -22 46 -50 78 -27 32 -50 63 -50 69 0 6 -7 18
-17 25 -9 8 -40 43 -69 79 -126 156 -213 259 -261 310 -28 30 -65 72 -81 92
-16 21 -65 73 -108 117 -44 43 -91 91 -106 107 -54 59 -198 192 -312 289 -65
55 -135 114 -155 131 -46 40 -161 126 -246 184 -36 25 -75 53 -87 62 -12 10
-26 18 -33 18 -7 0 -20 9 -30 20 -10 11 -23 20 -29 20 -6 0 -22 9 -36 20 -14
11 -31 20 -38 20 -7 0 -26 9 -42 20 -17 11 -42 28 -57 38 -16 10 -41 22 -58
26 -16 4 -37 13 -45 20 -18 15 -133 66 -149 66 -6 0 -28 9 -48 20 -21 11 -43
20 -49 20 -6 0 -25 7 -41 15 -17 8 -57 20 -89 27 -33 6 -65 16 -72 21 -17 13
-9 77 19 157 10 30 19 72 19 95 0 22 7 65 15 95 18 66 21 376 5 430 -6 19 -15
74 -20 122 -5 47 -14 97 -20 110 -6 12 -17 57 -24 98 -15 80 -39 159 -61 200
-7 14 -16 43 -20 65 -4 22 -16 54 -26 71 -11 17 -19 38 -19 46 0 9 -9 27 -20
41 -11 14 -20 33 -21 44 0 10 -13 41 -29 68 -16 28 -41 73 -55 101 -14 29 -36
67 -48 85 -13 19 -26 41 -29 49 -9 23 -135 208 -174 255 -19 23 -34 45 -34 49
0 4 -19 31 -43 61 -23 30 -55 75 -72 101 -16 27 -47 73 -67 103 -21 31 -46 69
-55 84 -10 16 -32 49 -50 75 -37 55 -129 207 -158 260 -11 20 -37 62 -58 93
-20 31 -37 62 -38 70 0 8 -14 34 -29 59 -31 47 -90 164 -90 176 0 4 -6 15 -14
23 -7 9 -26 45 -41 81 -15 36 -45 101 -66 146 -22 44 -39 87 -39 95 0 13 -39
125 -65 184 -7 17 -25 104 -39 195 -24 150 -26 191 -26 445 0 154 5 298 10
320 6 22 19 96 29 165 11 69 24 139 30 155 22 64 61 197 61 212 0 8 7 29 15
46 8 18 22 52 31 77 14 40 34 91 59 155 4 11 27 62 51 113 24 51 44 98 44 106
0 7 7 20 16 27 9 7 32 47 51 88 19 41 46 92 60 112 14 21 33 52 42 68 58 106
278 410 388 537 10 11 40 47 68 80 150 180 395 416 580 559 61 47 117 92 126
100 9 8 20 15 25 15 5 0 33 18 62 40 28 22 67 47 85 55 46 22 74 39 95 58 10
10 22 17 27 17 11 0 116 51 135 65 8 6 44 24 80 39 78 34 122 53 175 76 44 19
152 56 203 69 18 5 39 15 48 22 8 6 38 16 66 20 56 9 136 30 208 55 25 9 72
20 105 24 33 5 106 18 163 29 56 12 115 21 129 21 14 0 49 6 77 14 189 53
1119 85 1481 51z"/>
<path d="M6766 9089 l-26 -20 0 -213 c0 -200 1 -214 20 -234 20 -22 26 -22
295 -22 151 0 275 -2 275 -5 0 -12 -352 -355 -364 -355 -7 0 -24 8 -37 18 -41
31 -199 109 -278 137 -24 8 -61 15 -83 15 -21 0 -56 9 -78 20 -35 18 -59 20
-235 20 -176 0 -199 -2 -232 -20 -21 -11 -55 -20 -75 -20 -42 0 -146 -33 -193
-60 -16 -10 -41 -21 -54 -25 -33 -10 -171 -96 -171 -106 0 -5 -6 -9 -14 -9
-24 0 -184 -151 -261 -246 -67 -82 -152 -223 -170 -283 -5 -19 -19 -39 -30
-45 -11 -5 -31 -18 -45 -26 -14 -9 -37 -20 -51 -23 -35 -9 -210 -126 -268
-180 -78 -72 -178 -186 -223 -256 -71 -109 -65 -98 -108 -196 -44 -99 -53
-124 -76 -221 -21 -91 -24 -127 -24 -292 0 -167 3 -201 25 -293 14 -57 29
-111 34 -120 5 -8 23 -50 40 -93 17 -43 40 -90 51 -103 11 -14 20 -31 20 -38
0 -7 6 -18 14 -24 30 -25 26 -51 -15 -92 -31 -31 -43 -37 -57 -30 -9 5 -100
93 -201 195 -145 146 -191 186 -211 186 -20 0 -59 -34 -173 -148 -120 -121
-147 -153 -147 -176 0 -24 33 -62 190 -219 104 -105 190 -197 190 -204 0 -7
-85 -98 -190 -202 -158 -158 -190 -194 -190 -218 0 -35 -10 -23 156 -185 103
-101 147 -138 165 -138 18 0 72 47 214 190 105 104 197 190 205 190 8 0 101
-86 205 -190 176 -177 192 -191 220 -186 49 7 325 290 325 332 0 4 -87 94
-192 201 -106 107 -195 198 -197 204 -5 15 70 89 89 89 10 0 25 -9 35 -20 10
-11 24 -20 30 -20 7 0 18 -6 24 -14 7 -8 25 -18 41 -21 16 -3 34 -12 40 -20 6
-8 24 -17 40 -20 15 -3 45 -15 66 -26 21 -10 46 -19 56 -19 10 0 44 -9 75 -19
129 -43 469 -46 588 -6 22 7 65 19 95 26 30 7 68 20 85 31 16 10 37 18 46 18
9 0 22 6 28 14 7 8 23 17 36 20 13 3 46 21 72 39 26 17 60 39 75 47 71 40 237
202 312 304 53 74 63 91 116 196 33 65 66 110 82 110 17 0 137 61 149 76 6 8
16 14 21 14 10 0 110 71 143 101 52 48 158 160 199 211 64 79 176 284 176 322
0 10 6 30 14 44 8 15 25 61 38 102 21 69 23 92 23 305 0 213 -2 236 -23 305
-13 41 -30 87 -38 102 -8 14 -14 34 -14 45 0 10 -16 47 -35 83 -20 36 -44 84
-54 106 -11 23 -24 45 -30 48 -6 4 -11 15 -11 24 0 14 340 362 354 362 3 0 6
-121 6 -269 0 -256 1 -269 21 -295 l20 -26 213 0 c167 0 216 3 232 14 18 14
19 33 19 711 l0 697 -24 19 c-22 18 -49 19 -701 19 -670 0 -678 0 -704 -21z
m-355 -1150 c242 -32 506 -254 583 -494 38 -116 61 -277 48 -338 -6 -29 -14
-74 -18 -102 -11 -79 -51 -191 -89 -248 -19 -28 -35 -56 -35 -60 0 -13 -82
-87 -90 -82 -4 3 -11 32 -14 67 -4 34 -13 73 -21 87 -7 14 -16 42 -19 61 -13
64 -100 253 -150 325 -122 174 -360 387 -478 427 -18 6 -40 16 -48 23 -8 7
-26 16 -40 20 -14 4 -34 13 -46 20 -12 8 -49 19 -82 25 -34 6 -74 17 -89 25
-15 8 -52 15 -81 15 -30 0 -52 4 -50 9 5 15 145 121 180 137 18 8 40 18 48 22
68 37 94 47 160 57 98 16 226 18 331 4z m-671 -734 c41 -9 82 -21 90 -25 51
-30 135 -70 146 -70 7 0 18 -8 23 -17 5 -10 29 -33 53 -51 66 -49 141 -148
196 -257 34 -67 66 -204 70 -302 l3 -93 -93 1 c-128 0 -222 21 -300 64 -14 8
-32 15 -39 15 -16 0 -77 40 -143 94 -60 50 -186 202 -186 226 0 7 -6 26 -14
43 -58 129 -66 161 -66 282 l0 118 93 -6 c50 -3 126 -13 167 -22z m-737 -272
c6 -79 34 -184 61 -225 8 -13 17 -38 21 -57 4 -18 20 -54 36 -80 15 -25 35
-59 42 -76 22 -48 131 -185 194 -245 91 -87 144 -130 159 -130 7 0 17 -7 22
-15 4 -9 24 -24 43 -34 51 -29 131 -68 159 -80 14 -6 32 -15 40 -20 29 -19
156 -53 222 -60 100 -11 104 -21 33 -86 -33 -30 -66 -54 -74 -55 -12 0 -32 -9
-133 -61 -20 -10 -47 -19 -60 -19 -13 0 -45 -7 -72 -15 -67 -20 -259 -20 -316
0 -23 8 -54 15 -67 15 -14 0 -37 6 -51 14 -15 8 -58 29 -97 47 -100 46 -224
151 -269 228 -6 10 -23 36 -37 57 -30 46 -65 137 -84 214 -7 30 -18 68 -24 83
-18 46 -13 177 9 247 11 34 20 71 20 81 0 19 25 80 68 164 27 53 127 185 141
185 4 0 11 -35 14 -77z"/>
</g>
</svg>
